<?xml version="1.0" standalone="no"?>
<!DOCTYPE svg PUBLIC "-//W3C//DTD SVG 20010904//EN"
 "http://www.w3.org/TR/2001/REC-SVG-20010904/DTD/svg10.dtd">
<svg version="1.0" xmlns="http://www.w3.org/2000/svg"
 width="383.000000pt" height="383.000000pt" viewBox="0 0 383.000000 383.000000"
 preserveAspectRatio="xMidYMid meet">
<metadata>
Created by potrace 1.16, written by Peter Selinger 2001-2019
</metadata>
<g transform="translate(0.000000,383.000000) scale(0.100000,-0.100000)"
fill="#000000" stroke="none">
<path d="M1735 3820 c-112 -12 -314 -54 -409 -86 -134 -45 -209 -80 -381 -174
-97 -53 -279 -196 -380 -297 -112 -113 -240 -277 -229 -294 4 -7 3 -9 -4 -5
-13 8 -56 -60 -46 -75 4 -7 3 -9 -4 -5 -6 3 -18 -8 -27 -26 -115 -222 -170
-368 -211 -566 -36 -171 -45 -463 -19 -639 32 -224 86 -399 182 -589 l36 -71
98 38 c54 21 139 51 189 66 l90 27 0 452 0 453 -119 3 -120 3 77 40 c42 22
121 64 177 94 55 29 135 71 177 93 l77 40 3 72 3 71 58 3 57 3 0 -41 c0 -22 2
-40 4 -40 3 0 90 45 195 100 105 55 196 100 204 100 7 0 17 -4 23 -9 5 -4 95
-52 199 -106 105 -54 195 -101 200 -105 6 -4 73 -40 150 -80 77 -40 191 -99
252 -132 62 -33 118 -56 125 -52 6 4 8 3 5 -3 -3 -5 11 -18 31 -29 l37 -19
-122 -3 -123 -3 0 -373 0 -373 103 -6 c56 -4 137 -10 180 -13 l77 -7 0 405 0
406 -27 7 c-29 7 -79 41 -114 78 -75 78 -119 206 -119 344 0 113 16 186 60
274 33 64 114 154 130 144 6 -4 10 -95 10 -231 0 -192 2 -224 15 -224 13 0 15
33 15 239 l0 239 23 6 c49 13 47 21 47 -239 0 -238 1 -245 20 -245 19 0 20 7
20 245 0 260 -2 252 48 239 l22 -6 0 -239 c0 -206 2 -239 15 -239 13 0 15 32
15 224 0 124 4 227 8 230 11 7 93 -78 121 -125 27 -46 61 -144 61 -176 l0 -23
38 23 c84 53 150 60 227 23 113 -53 179 -171 191 -341 13 -181 -61 -340 -189
-406 l-37 -20 2 -361 3 -362 50 -14 c85 -23 264 -81 328 -107 33 -14 62 -25
64 -25 1 0 18 30 37 68 255 510 262 1134 16 1657 -126 271 -328 520 -572 709
-52 40 -92 64 -99 60 -7 -4 -9 -3 -6 4 7 10 -80 65 -211 133 -77 41 -274 114
-372 137 -206 51 -466 71 -655 52z"/>
<path d="M3034 2476 c-43 -19 -100 -90 -120 -150 -38 -112 -10 -265 61 -340
129 -137 313 -11 316 219 1 68 -17 149 -31 140 -6 -4 -7 1 -3 11 4 12 3 15 -5
10 -8 -5 -10 -2 -6 9 4 10 -8 29 -36 56 -63 60 -112 73 -176 45z"/>
<path d="M2775 2124 c-22 -19 -55 -39 -72 -46 l-33 -12 0 -413 0 -412 33 -6
c138 -24 314 -56 325 -60 9 -3 12 70 12 346 l0 350 -36 15 c-74 31 -143 121
-178 235 l-11 37 -40 -34z"/>
<path d="M900 1895 l0 -135 140 0 140 0 0 135 0 135 -140 0 -140 0 0 -135z"/>
<path d="M1630 1554 l0 -277 68 6 c37 4 100 7 140 7 l72 0 0 270 0 270 -140 0
-140 0 0 -276z"/>
<path d="M390 772 c0 -18 161 -201 231 -262 94 -83 178 -146 191 -142 5 1 7
-1 4 -6 -2 -4 19 -23 47 -42 29 -18 64 -41 78 -51 86 -58 327 -160 468 -199
183 -49 297 -64 506 -64 281 0 472 36 720 135 154 62 404 206 387 224 -4 5 -2
6 4 2 16 -9 174 121 268 222 23 24 48 51 56 60 29 29 100 119 100 125 0 3
-688 6 -1530 6 -841 0 -1530 -4 -1530 -8z"/>
</g>
</svg>
